<?xml version="1.0" encoding="UTF-8"?>
<svg version="1.1" xmlns="http://www.w3.org/2000/svg" width="187" height="104">
<path d="M0 0 C1.24576657 2.49153314 1.1336297 4.181268 1.14526367 6.96875 C1.15164352 8.00322266 1.15802338 9.03769531 1.16459656 10.10351562 C1.16570938 11.22435547 1.1668222 12.34519531 1.16796875 13.5 C1.17296135 15.21993164 1.17296135 15.21993164 1.17805481 16.97460938 C1.18312428 19.40233966 1.18546313 21.83007693 1.18530273 24.2578125 C1.18749089 27.98449082 1.20565125 31.71087404 1.22460938 35.4375 C1.22754287 37.79166565 1.22952796 40.14583271 1.23046875 42.5 C1.23765427 43.62083984 1.24483978 44.74167969 1.25224304 45.89648438 C1.24916641 46.93095703 1.24608978 47.96542969 1.24291992 49.03125 C1.24434494 49.94455078 1.24576996 50.85785156 1.24723816 51.79882812 C1 54 1 54 -1 56 C-3.05859375 56.16015625 -3.05859375 56.16015625 -5.4375 56.0625 C-8.43687912 55.94884972 -10.09270547 56.03090182 -13 57 C-18.85480059 57.39032004 -22.7609671 56.96549032 -28 54 C-32.81053356 49.41321218 -34.80596273 44.20213888 -37 38 C-37.99 38.66 -38.98 39.32 -40 40 C-42.4519043 40.22705078 -42.4519043 40.22705078 -45.32421875 40.1953125 C-46.86625977 40.18564453 -46.86625977 40.18564453 -48.43945312 40.17578125 C-50.04723633 40.15064453 -50.04723633 40.15064453 -51.6875 40.125 C-52.77095703 40.11597656 -53.85441406 40.10695312 -54.97070312 40.09765625 C-57.6473571 40.0740734 -60.32356797 40.04116126 -63 40 C-60.85262966 43.9231947 -60.85262966 43.9231947 -57.3125 46.5625 C-53.15654543 47.11139966 -51.44292347 45.97413943 -47.89453125 43.97265625 C-45.43969846 42.71234003 -43.70534997 42.44301618 -41 43 C-39 46 -39 46 -39 48.375 C-40.43811182 52.15004352 -42.74398613 53.70163727 -46 56 C-51.71891703 57.83698547 -57.73068522 57.88355996 -63.25 55.4375 C-68.29467402 52.61812131 -71.19606028 48.41181916 -73 43 C-73.63943805 35.33722597 -73.87985145 28.29322305 -69 22 C-64.69795021 17.62112789 -61.42777769 15.83328454 -55.3125 15.6875 C-49.50154178 15.76395998 -46.51562965 16.31377172 -42 20 C-39.06608633 23.73825031 -36.98025775 27.32813329 -36 32 C-35.67 30.824375 -35.34 29.64875 -35 28.4375 C-32.91564494 22.77852637 -28.35611333 18.67805666 -23 16 C-21.0018949 15.90350061 -19.0004282 15.87019128 -17 15.875 C-15.39125 15.87113281 -15.39125 15.87113281 -13.75 15.8671875 C-11 16 -11 16 -9 17 C-9.01160156 16.02417969 -9.02320313 15.04835938 -9.03515625 14.04296875 C-9.04417969 12.77066406 -9.05320313 11.49835937 -9.0625 10.1875 C-9.07410156 8.92292969 -9.08570313 7.65835938 -9.09765625 6.35546875 C-9 3 -9 3 -8 0 C-5.09660535 -1.45169732 -3.09125158 -0.72348441 0 0 Z M-63 30 C-63 30.33 -63 30.66 -63 31 C-57.72 31 -52.44 31 -47 31 C-49.37977544 25.81255705 -49.37977544 25.81255705 -53.3125 24.875 C-58.29716697 25.04397176 -59.57589062 26.49237576 -63 30 Z M-24.75 29.125 C-26.38526252 32.88610379 -26.59844652 35.95843654 -26 40 C-24.64834752 43.20128218 -23.34266694 44.71290067 -20.6875 46.9375 C-17.97835118 48.2897408 -17.97835118 48.2897408 -14.875 47.375 C-12.24499446 46.11717127 -10.74198549 45.29208616 -9 43 C-7.37439327 38.1231798 -7.19068314 33.7727893 -9.3125 29.125 C-10.99740483 26.7802755 -10.99740483 26.7802755 -14 25 C-18.82578598 24.50504759 -21.65021798 25.36097898 -24.75 29.125 Z " fill="#FFFFFF" transform="translate(107,25)"/>
<path d="M0 0 C2.375 0.6875 2.375 0.6875 3.375 1.6875 C3.4737517 3.37005235 3.50298904 5.05674028 3.50439453 6.7421875 C3.50754669 7.82000488 3.51069885 8.89782227 3.51394653 10.00830078 C3.5119223 11.18118652 3.50989807 12.35407227 3.5078125 13.5625 C3.50876923 14.7572998 3.50972595 15.95209961 3.51071167 17.18310547 C3.51139371 19.7151698 3.50953778 22.24723588 3.50537109 24.77929688 C3.50002321 28.6706126 3.50531533 32.56181289 3.51171875 36.453125 C3.51105797 38.90625026 3.50977682 41.35937544 3.5078125 43.8125 C3.50983673 44.98538574 3.51186096 46.15827148 3.51394653 47.36669922 C3.50921829 48.98342529 3.50921829 48.98342529 3.50439453 50.6328125 C3.50359894 51.58687988 3.50280334 52.54094727 3.50198364 53.52392578 C3.375 55.6875 3.375 55.6875 2.375 56.6875 C0.37547242 56.73096799 -1.62539988 56.727492 -3.625 56.6875 C-6.67770463 56.52938612 -6.67770463 56.52938612 -9.625 57.6875 C-15.31485711 58.2510668 -19.79408403 58.01546433 -24.625 54.6875 C-29.01616154 50.42270282 -32.21614943 46.2875089 -32.92578125 40.0390625 C-32.96150811 31.72661399 -31.6267653 25.86074431 -25.625 19.6875 C-20.35871321 15.96256544 -14.84380209 16.15910505 -8.625 16.6875 C-7.965 17.0175 -7.305 17.3475 -6.625 17.6875 C-6.58761719 16.55570313 -6.55023438 15.42390625 -6.51171875 14.2578125 C-6.44606918 12.77600795 -6.37962149 11.29423861 -6.3125 9.8125 C-6.28994141 9.06613281 -6.26738281 8.31976563 -6.24414062 7.55078125 C-6.14688055 5.587896 -5.89457706 3.63421678 -5.625 1.6875 C-2.625 -0.3125 -2.625 -0.3125 0 0 Z M-21.625 29.6875 C-23.47623342 34.02659009 -24.23288474 38.06677878 -22.5625 42.5625 C-20.48757557 45.9091523 -19.28933741 47.29156194 -15.625 48.6875 C-12.09471056 48.6875 -10.71263611 47.75322708 -7.875 45.625 C-5.07688118 41.97190043 -4.31148867 39.25580797 -4.625 34.6875 C-6.10333476 30.56372409 -7.70009889 27.76538882 -11.625 25.6875 C-16.22819211 24.86128603 -18.54809144 26.27795267 -21.625 29.6875 Z " fill="#FFFFFF" transform="translate(142.625,24.3125)"/>
<path d="M0 0 C1.33778118 -0.65769577 2.67058515 -1.32555327 4 -2 C6.5078125 -2.265625 6.5078125 -2.265625 9.125 -2.25 C9.99382813 -2.25515625 10.86265625 -2.2603125 11.7578125 -2.265625 C14 -2 14 -2 16 0 C16.25 2.5 16.25 2.5 16 5 C13.31376477 7.68623523 10.95335101 7.66619566 7.2890625 8.2421875 C4.04153443 9.31730771 2.92791617 10.11242913 1 13 C0.41217561 16.68216273 0.39415489 20.33926764 0.375 24.0625 C0.34949059 26.05350982 0.31599127 28.04443778 0.2734375 30.03515625 C0.26747559 30.9156665 0.26151367 31.79617676 0.25537109 32.70336914 C0 35 0 35 -2 38 C-5 38.3125 -5 38.3125 -8 38 C-10.89309941 35.10690059 -10.32436824 32.13094168 -10.3359375 28.25390625 C-10.3425943 27.48698959 -10.3492511 26.72007294 -10.35610962 25.92991638 C-10.36624115 24.30673626 -10.37092648 22.68351444 -10.37060547 21.06030273 C-10.37497746 18.57531162 -10.41128476 16.09209835 -10.44921875 13.60742188 C-10.45508707 12.03125608 -10.45905636 10.45508184 -10.4609375 8.87890625 C-10.48249405 7.76316978 -10.48249405 7.76316978 -10.50448608 6.62489319 C-10.47501409 3.30066008 -10.42460178 1.47296202 -8.15869141 -1.05102539 C-5.00472499 -2.43752929 -3.15823569 -1.11854181 0 0 Z " fill="#FFFFFF" transform="translate(20,43)"/>
<path d="M0 0 C2.375 0.75 2.375 0.75 3.375 1.75 C3.41592937 4.08297433 3.41741723 6.41705225 3.375 8.75 C6.345 9.245 6.345 9.245 9.375 9.75 C9.41741723 12.08294775 9.41592937 14.41702567 9.375 16.75 C8.375 17.75 8.375 17.75 5.8125 17.8125 C5.008125 17.791875 4.20375 17.77125 3.375 17.75 C3.38023682 18.65355225 3.38547363 19.55710449 3.39086914 20.48803711 C3.40787686 23.82951489 3.42043333 27.17094692 3.42993164 30.51245117 C3.43497101 31.96070073 3.44180253 33.40894517 3.45043945 34.85717773 C3.46252247 36.93474588 3.46823211 39.01224697 3.47265625 41.08984375 C3.47789307 42.34144287 3.48312988 43.59304199 3.48852539 44.88256836 C3.375 47.75 3.375 47.75 2.375 48.75 C-0.5625 48.9375 -0.5625 48.9375 -3.625 48.75 C-5.625 46.75 -5.625 46.75 -5.85205078 43.86083984 C-5.83634033 42.05413818 -5.83634033 42.05413818 -5.8203125 40.2109375 C-5.81386719 38.90898438 -5.80742187 37.60703125 -5.80078125 36.265625 C-5.78406929 34.88541405 -5.76713939 33.50520571 -5.75 32.125 C-5.73997006 30.73698548 -5.73084423 29.34896411 -5.72265625 27.9609375 C-5.69901863 24.55711974 -5.66606867 21.15364494 -5.625 17.75 C-7.605 17.42 -9.585 17.09 -11.625 16.75 C-11.66754356 14.75045254 -11.66580783 12.74958364 -11.625 10.75 C-10.625 9.75 -10.625 9.75 -8.0625 9.6875 C-7.258125 9.708125 -6.45375 9.72875 -5.625 9.75 C-5.686875 8.656875 -5.74875 7.56375 -5.8125 6.4375 C-5.625 2.75 -5.625 2.75 -4.4375 0.75 C-2.625 -0.25 -2.625 -0.25 0 0 Z " fill="#FFFFFF" transform="translate(177.625,32.25)"/>
<path d="M0 0 C3 -0.375 3 -0.375 6 0 C8.4286032 3.6429048 8.25761901 5.41303841 8.265625 9.75 C8.26753845 10.40452148 8.2694519 11.05904297 8.27142334 11.73339844 C8.27278245 13.11523829 8.26910513 14.49709103 8.26074219 15.87890625 C8.25003809 17.9924796 8.26064601 20.10520305 8.2734375 22.21875 C8.27211586 23.56250187 8.26955336 24.90625322 8.265625 26.25 C8.26336914 27.47203125 8.26111328 28.6940625 8.25878906 29.953125 C8 33 8 33 6 36 C3 36.375 3 36.375 0 36 C-2.4286032 32.3570952 -2.25761901 30.58696159 -2.265625 26.25 C-2.26753845 25.59547852 -2.2694519 24.94095703 -2.27142334 24.26660156 C-2.27278245 22.88476171 -2.26910513 21.50290897 -2.26074219 20.12109375 C-2.25003809 18.0075204 -2.26064601 15.89479695 -2.2734375 13.78125 C-2.27211586 12.43749813 -2.26955336 11.09374678 -2.265625 9.75 C-2.26336914 8.52796875 -2.26111328 7.3059375 -2.25878906 6.046875 C-2 3 -2 3 0 0 Z " fill="#FFFFFF" transform="translate(155,45)"/>
<path d="M0 0 C2.375 1.5 2.375 1.5 4 4 C4.6293407 7.51440821 4.63147635 10.7370473 3 14 C-0.26205554 15.63102777 -3.43555389 15.51981506 -7 15 C-9 14 -9 14 -10 12 C-10.75912409 5.16788321 -10.75912409 5.16788321 -8.375 1.5 C-5.27859404 -0.45562482 -3.60146865 -0.60024477 0 0 Z " fill="#FFFFFF" transform="translate(161,28)"/>
</svg>
